<svg xmlns="http://www.w3.org/2000/svg" width="32" height="32" viewBox="0 0 32 32">
  <path fill="#646CFF" d="M31.952 7.92c-0.020-0.17-0.048-0.335-0.080-0.5-0.118-0.607-0.306-1.194-0.562-1.752-0.022-0.049-0.045-0.097-0.068-0.145-0.264-0.551-0.59-1.070-0.971-1.545-0.087-0.108-0.177-0.214-0.27-0.317-0.383-0.427-0.808-0.816-1.273-1.158-0.146-0.107-0.295-0.21-0.448-0.308-0.504-0.324-1.045-0.595-1.614-0.81-0.147-0.055-0.296-0.106-0.447-0.153-0.624-0.194-1.273-0.328-1.939-0.398-0.149-0.016-0.298-0.027-0.448-0.035-0.657-0.037-1.317-0.017-1.97 0.058-0.149 0.017-0.297 0.038-0.445 0.062-0.652 0.106-1.29 0.274-1.902 0.5-0.144 0.053-0.287 0.11-0.428 0.172-0.619 0.27-1.208 0.603-1.756 0.992-0.127 0.090-0.251 0.183-0.373 0.28-0.528 0.421-1.014 0.895-1.45 1.416-0.108 0.129-0.213 0.262-0.314 0.398-0.364 0.486-0.686 1.008-0.959 1.558-0.062 0.125-0.121 0.252-0.178 0.381-0.248 0.564-0.443 1.152-0.583 1.756-0.032 0.139-0.059 0.279-0.084 0.42-0.111 0.631-0.167 1.275-0.167 1.926 0 0.651 0.056 1.295 0.167 1.926 0.025 0.141 0.052 0.281 0.084 0.42 0.14 0.604 0.335 1.192 0.583 1.756 0.057 0.129 0.116 0.256 0.178 0.381 0.273 0.55 0.595 1.072 0.959 1.558 0.101 0.136 0.206 0.269 0.314 0.398 0.436 0.521 0.922 0.995 1.45 1.416 0.122 0.097 0.246 0.19 0.373 0.28 0.548 0.389 1.137 0.722 1.756 0.992 0.141 0.062 0.284 0.119 0.428 0.172 0.612 0.226 1.25 0.394 1.902 0.5 0.148 0.024 0.296 0.045 0.445 0.062 0.653 0.075 1.313 0.095 1.97 0.058 0.15-0.008 0.299-0.019 0.448-0.035 0.666-0.070 1.315-0.204 1.939-0.398 0.151-0.047 0.3-0.098 0.447-0.153 0.569-0.215 1.11-0.486 1.614-0.81 0.153-0.098 0.302-0.201 0.448-0.308 0.465-0.342 0.89-0.731 1.273-1.158 0.093-0.103 0.183-0.209 0.27-0.317 0.381-0.475 0.707-0.994 0.971-1.545 0.023-0.048 0.046-0.096 0.068-0.145 0.256-0.558 0.444-1.145 0.562-1.752 0.032-0.165 0.060-0.33 0.080-0.5 0.091-0.755 0.091-1.515 0-2.27zM16 27.2c-6.627 0-12-5.373-12-12s5.373-12 12-12 12 5.373 12 12-5.373 12-12 12z"/>
</svg>